<?xml version="1.0" encoding="UTF-8"?>
<svg width="700pt" height="700pt" version="1.1" viewBox="0 0 700 700" xmlns="http://www.w3.org/2000/svg">
 <g>
  <path d="m87.629 285.41 49.801-25.609 34.152 66.418-49.801 25.609z"/>
  <path d="m398.57 318.04-27.16-52.844 132.78-68.32-68.32-132.78-298.78 153.66 68.281 132.81 132.78-68.301 27.199 52.844c4.2578-4.5352 9.1836-8.5859 15.062-11.594 5.8203-3.0039 11.98-4.6641 18.16-5.4844z"/>
  <path d="m555.33 280v74.668h-96.805c4.4062 12.414 4.293 25.516 0.11328 37.332h96.691v74.668h37.332v-186.67z"/>
  <path d="m439.21 356.27c-0.29688-0.57813-0.72656-1.0625-1.0625-1.6055-6.4961-11.219-18.012-17.809-30.258-18.441-6.3477-0.33594-12.879 0.80078-18.965 3.9219-6.0859 3.1172-10.789 7.7852-14.223 13.16-6.9258 10.828-8.1953 24.883-1.9023 37.109 9.4062 18.293 31.938 25.535 50.27 16.109 6.6094-3.3984 11.703-8.5312 15.137-14.523 6.1953-10.625 7.0352-24.027 1.0039-35.73z"/>
 </g>
</svg>
