<?xml version="1.0" encoding="iso-8859-1"?>
<!-- Generator: Adobe Illustrator 19.0.0, SVG Export Plug-In . SVG Version: 6.00 Build 0)  -->
<svg version="1.1" id="Layer_1" xmlns="http://www.w3.org/2000/svg" xmlns:xlink="http://www.w3.org/1999/xlink" x="0px" y="0px"
	 viewBox="0 0 512 512" style="enable-background:new 0 0 512 512;" xml:space="preserve">
<g>
	<g>
		<path d="M103.967,0v51.722v7.837V512h87.682l53.081-338.024h22.541L320.351,512h87.682V59.559v-7.837V0H103.967z M227.265,15.673
			h57.469v28.212h-57.469V15.673z M119.641,15.673h91.951v28.212h-91.951V15.673z M119.641,59.559h55.929
			c-3.566,29.178-26.753,52.364-55.929,55.929V59.559z M178.245,496.327h-58.604v-16.196h61.147L178.245,496.327z M256,126.955
			h-7.837v31.347h-33.959v15.673h14.66l-45.615,290.482h-63.608V131.268c37.832-3.699,68.01-33.878,71.709-71.709h72.487v59.559
			C263.837,123.44,260.322,126.955,256,126.955z M392.359,496.327h-58.604l-2.543-16.196h61.147V496.327z M392.359,464.457h-63.608
			l-45.615-290.482h14.66v-15.673h-33.959v-17.016c9.122-3.234,15.673-11.951,15.673-22.168V59.559h41.14
			c3.699,37.832,33.878,68.01,71.709,71.709V464.457z M392.359,115.488c-29.178-3.566-52.364-26.753-55.929-55.929h55.929V115.488z
			 M392.359,43.886h-91.951V15.673h91.951V43.886z"/>
	</g>
</g>
<g>
</g>
<g>
</g>
<g>
</g>
<g>
</g>
<g>
</g>
<g>
</g>
<g>
</g>
<g>
</g>
<g>
</g>
<g>
</g>
<g>
</g>
<g>
</g>
<g>
</g>
<g>
</g>
<g>
</g>
</svg>
