<?xml version="1.0" encoding="iso-8859-1"?>
<!-- Generator: Adobe Illustrator 19.0.0, SVG Export Plug-In . SVG Version: 6.00 Build 0)  -->
<svg version="1.1" id="Capa_1" xmlns="http://www.w3.org/2000/svg" xmlns:xlink="http://www.w3.org/1999/xlink" x="0px" y="0px"
	 viewBox="0 0 480 480" style="enable-background:new 0 0 480 480;" xml:space="preserve">
<g>
	<path style="fill:#826E77;" d="M363.871,183.871c0-12.189,0-32.469,0-38.545C323.24,134.894,281.62,129.677,240,129.677
		s-83.24,5.217-123.871,15.648c0,6.077,0,26.357,0,38.545H0v7.742h116.129h38.71h170.323h38.71H480v-7.742H363.871z
		 M123.871,183.871v-32.502c37.986-9.259,77.024-13.95,116.129-13.95s78.143,4.691,116.129,13.95v32.502H123.871z"/>
	<path style="fill:#DFD0C6;" d="M325.161,191.613v139.355H480V191.613H363.871H325.161z M406.452,265.161v-11.613v-46.452h61.935
		v46.452v11.613v46.452h-15.484h-46.452V265.161z M398.71,253.548v11.613v46.452h-15.484h-46.452v-46.452v-11.613v-46.452h61.935
		V253.548z"/>
	<path style="fill:#DFD0C6;" d="M154.839,191.613h-38.71H0v139.355h154.839V191.613z M73.548,253.548v11.613v46.452H58.065H11.613
		v-46.452v-11.613v-46.452h61.935V253.548z M143.226,253.548v11.613v46.452h-15.484H81.29v-46.452v-11.613v-46.452h61.935V253.548z"
		/>
	<polygon style="fill:#A08A8A;" points="166.452,330.968 166.452,265.161 166.452,253.548 166.452,207.097 313.548,207.097 
		313.548,253.548 313.548,265.161 313.548,300 313.548,330.968 325.161,330.968 325.161,191.613 154.839,191.613 154.839,330.968 	
		"/>
	<polygon style="fill:#95FFFF;" points="11.613,207.097 11.613,253.548 58.065,253.548 	"/>
	<polygon style="fill:#95FFFF;" points="11.613,311.613 58.065,311.613 11.613,265.161 	"/>
	<polygon style="fill:#95FFFF;" points="81.29,311.613 127.742,311.613 81.29,265.161 	"/>
	<polygon style="fill:#95FFFF;" points="81.29,207.097 81.29,253.548 127.742,253.548 	"/>
	<polygon style="fill:#95FFFF;" points="313.548,300 278.71,265.161 278.71,330.968 278.71,350.323 313.548,350.323 
		313.548,330.968 	"/>
	<polygon style="fill:#95FFFF;" points="201.29,300 166.452,265.161 166.452,330.968 166.452,350.323 201.29,350.323 
		201.29,330.968 	"/>
	<polygon style="fill:#95FFFF;" points="212.903,253.548 166.452,207.097 166.452,253.548 201.29,253.548 	"/>
	<polygon style="fill:#95FFFF;" points="336.774,311.613 383.226,311.613 336.774,265.161 	"/>
	<polygon style="fill:#95FFFF;" points="336.774,207.097 336.774,253.548 383.226,253.548 	"/>
	<polygon style="fill:#95FFFF;" points="406.452,265.161 406.452,311.613 452.903,311.613 	"/>
	<polygon style="fill:#95FFFF;" points="406.452,207.097 406.452,253.548 452.903,253.548 	"/>
	<rect y="330.968" style="fill:#C8B2A8;" width="154.839" height="19.355"/>
	<rect x="325.161" y="330.968" style="fill:#C8B2A8;" width="154.839" height="19.355"/>
	<polygon style="fill:#6EB1E2;" points="11.613,253.548 11.613,265.161 73.548,265.161 73.548,253.548 58.065,253.548 	"/>
	<polygon style="fill:#6EB1E2;" points="81.29,253.548 81.29,265.161 143.226,265.161 143.226,253.548 127.742,253.548 	"/>
	<polygon style="fill:#6EB1E2;" points="336.774,253.548 336.774,265.161 398.71,265.161 398.71,253.548 383.226,253.548 	"/>
	<rect x="166.452" y="253.548" style="fill:#6EB1E2;" width="34.839" height="11.613"/>
	<rect x="278.71" y="253.548" style="fill:#6EB1E2;" width="34.839" height="11.613"/>
	<polygon style="fill:#6EB1E2;" points="468.387,253.548 452.903,253.548 406.452,253.548 406.452,265.161 468.387,265.161 	"/>
	<polygon style="fill:#80D7F0;" points="58.065,253.548 73.548,253.548 73.548,207.097 11.613,207.097 	"/>
	<polygon style="fill:#80D7F0;" points="127.742,253.548 143.226,253.548 143.226,207.097 81.29,207.097 	"/>
	<polygon style="fill:#80D7F0;" points="58.065,311.613 73.548,311.613 73.548,265.161 11.613,265.161 	"/>
	<polygon style="fill:#80D7F0;" points="127.742,311.613 143.226,311.613 143.226,265.161 81.29,265.161 	"/>
	<polygon style="fill:#80D7F0;" points="383.226,253.548 398.71,253.548 398.71,207.097 336.774,207.097 	"/>
	<polygon style="fill:#80D7F0;" points="468.387,253.548 468.387,207.097 406.452,207.097 452.903,253.548 	"/>
	<polygon style="fill:#80D7F0;" points="383.226,311.613 398.71,311.613 398.71,265.161 336.774,265.161 	"/>
	<polygon style="fill:#80D7F0;" points="468.387,311.613 468.387,265.161 406.452,265.161 452.903,311.613 	"/>
	<polygon style="fill:#A08A8A;" points="212.903,253.548 201.29,253.548 201.29,265.161 201.29,300 201.29,330.968 212.903,330.968 
		212.903,265.161 267.097,265.161 267.097,319.355 267.097,330.968 278.71,330.968 278.71,265.161 278.71,253.548 	"/>
	<polygon style="fill:#80D7F0;" points="212.903,265.161 267.097,319.355 267.097,265.161 	"/>
	<path style="fill:#695A69;" d="M240,137.419c-39.105,0-78.143,4.691-116.129,13.95v32.502h232.258v-32.502
		C318.143,142.111,279.105,137.419,240,137.419z M146.697,172.462c-3.664,0-6.136-1.931-6.296-4.919l-0.013-0.255h2.904l0.024,0.215
		c0.16,1.432,1.59,2.394,3.557,2.394c1.856,0,3.204-0.93,3.204-2.212c0-1.113-0.795-1.763-2.744-2.243l-2.057-0.495
		c-3.041-0.734-4.456-2.17-4.456-4.517c0-2.864,2.476-4.865,6.021-4.865c3.493,0,5.895,1.953,5.977,4.859l0.007,0.249h-2.87
		l-0.02-0.22c-0.129-1.433-1.328-2.322-3.127-2.322c-1.784,0-2.984,0.858-2.984,2.135c0,0.986,0.782,1.581,2.701,2.055l1.75,0.429
		c3.362,0.795,4.797,2.182,4.797,4.638C153.07,170.517,150.628,172.462,146.697,172.462z M168.364,172.197h-2.95v-7.035h-7.673
		v7.035h-2.95v-16.369h2.95v6.716h7.673v-6.716h2.95V172.197z M177.9,172.462c-4.739,0-7.683-3.235-7.683-8.443
		c0-5.215,2.944-8.454,7.683-8.454c4.74,0,7.684,3.239,7.684,8.454C185.584,169.226,182.639,172.462,177.9,172.462z M193.819,166.77
		h-3.435v5.427h-2.95v-16.369h6.462c3.228,0,5.482,2.245,5.482,5.46C199.378,164.516,197.093,166.77,193.819,166.77z
		 M207.429,166.77h-3.435v5.427h-2.95v-16.369h6.462c3.228,0,5.482,2.245,5.482,5.46C212.988,164.516,210.702,166.77,207.429,166.77
		z M217.604,172.197h-2.95v-16.369h2.95V172.197z M233.486,172.197h-2.592l-7.966-11.32v11.32h-2.884v-16.369h2.602l7.954,11.315
		v-11.315h2.884V172.197z M250.088,165.35c0,4.453-2.65,7.112-7.089,7.112c-4.719,0-7.65-3.265-7.65-8.521
		c0-5.167,2.919-8.377,7.617-8.377c3.618,0,6.43,2.195,6.997,5.462l0.049,0.284h-2.999l-0.052-0.172
		c-0.562-1.863-2.015-2.932-3.985-2.932c-2.895,0-4.624,2.136-4.624,5.713c0,3.639,1.789,5.901,4.668,5.901
		c2.451,0,4.119-1.537,4.15-3.823v-0.03h-4.106v-2.476h7.023V165.35z M271.131,167.057c-0.624,3.384-3.236,5.405-6.986,5.405
		c-4.637,0-7.518-3.24-7.518-8.455c0-5.129,2.951-8.443,7.518-8.443c3.74,0,6.544,2.305,6.977,5.737l0.034,0.272h-2.913
		l-0.041-0.191c-0.417-1.93-2.01-3.177-4.057-3.177c-2.742,0-4.514,2.277-4.514,5.801c0,3.586,1.734,5.813,4.525,5.813
		c2.101,0,3.577-1.045,4.048-2.867l0.047-0.181h2.933L271.131,167.057z M283.434,158.437h-7.618v4.162h7.21v2.531h-7.21v4.447h7.618
		v2.62h-10.568v-16.369h10.568V158.437z M298.915,172.197h-2.592l-7.965-11.32v11.32h-2.884v-16.369h2.602l7.955,11.316v-11.316
		h2.884V172.197z M313.272,158.437h-4.943v13.761h-2.95v-13.761h-4.954v-2.608h12.846V158.437z M325.362,158.437h-7.618v4.162h7.211
		v2.531h-7.211v4.447h7.618v2.62h-10.568v-16.369h10.568V158.437z M336.681,172.197l-3.236-6.109h-3.091v6.109h-2.95v-16.369h6.484
		c3.37,0,5.548,2.001,5.548,5.097c0,2.164-1.133,3.925-2.977,4.666l3.628,6.606H336.681z"/>
	<path style="fill:#695A69;" d="M177.9,158.217c-2.886,0-4.679,2.223-4.679,5.802c0,3.572,1.793,5.79,4.679,5.79
		c2.879,0,4.668-2.219,4.668-5.79C182.568,160.44,180.779,158.217,177.9,158.217z"/>
	<path style="fill:#695A69;" d="M206.856,158.393h-2.862v5.824h2.862c2.016,0,3.127-1.036,3.127-2.917
		C209.983,159.425,208.873,158.393,206.856,158.393z"/>
	<path style="fill:#695A69;" d="M193.247,158.393h-2.862v5.824h2.862c2.016,0,3.127-1.036,3.127-2.917
		C196.374,159.425,195.263,158.393,193.247,158.393z"/>
	<path style="fill:#695A69;" d="M333.59,158.382h-3.237v5.229h3.303c1.782,0,2.763-0.93,2.763-2.62
		C336.419,159.358,335.361,158.382,333.59,158.382z"/>
	<rect x="154.839" y="330.968" style="fill:#826E77;" width="11.613" height="19.355"/>
	<rect x="313.548" y="330.968" style="fill:#826E77;" width="11.613" height="19.355"/>
	<rect x="267.097" y="330.968" style="fill:#826E77;" width="11.613" height="19.355"/>
	<rect x="201.29" y="330.968" style="fill:#826E77;" width="11.613" height="19.355"/>
	<polygon style="fill:#80D7F0;" points="278.71,253.548 313.548,253.548 313.548,207.097 166.452,207.097 212.903,253.548 	"/>
	<polygon style="fill:#80D7F0;" points="166.452,265.161 201.29,300 201.29,265.161 	"/>
	<polygon style="fill:#80D7F0;" points="278.71,265.161 313.548,300 313.548,265.161 	"/>
	<polygon style="fill:#95FFFF;" points="267.097,319.355 212.903,265.161 212.903,330.968 212.903,350.323 267.097,350.323 
		267.097,330.968 	"/>
	<path style="fill:#FFF7E7;" d="M148.274,162.748l-1.75-0.429c-1.918-0.474-2.701-1.069-2.701-2.055
		c0-1.277,1.199-2.135,2.984-2.135c1.8,0,2.998,0.89,3.127,2.322l0.02,0.22h2.87l-0.007-0.249c-0.082-2.906-2.484-4.859-5.977-4.859
		c-3.545,0-6.021,2.001-6.021,4.865c0,2.348,1.416,3.783,4.456,4.517l2.057,0.495c1.949,0.48,2.744,1.129,2.744,2.243
		c0,1.282-1.347,2.212-3.204,2.212c-1.968,0-3.398-0.962-3.557-2.394l-0.024-0.215h-2.904l0.013,0.255
		c0.161,2.988,2.632,4.919,6.296,4.919c3.931,0,6.373-1.944,6.373-5.075C153.07,164.931,151.635,163.543,148.274,162.748z"/>
	<polygon style="fill:#FFF7E7;" points="165.415,162.544 157.741,162.544 157.741,155.828 154.792,155.828 154.792,172.197 
		157.741,172.197 157.741,165.163 165.415,165.163 165.415,172.197 168.364,172.197 168.364,155.828 165.415,155.828 	"/>
	<path style="fill:#FFF7E7;" d="M177.9,155.565c-4.739,0-7.683,3.239-7.683,8.454c0,5.208,2.944,8.443,7.683,8.443
		c4.74,0,7.684-3.235,7.684-8.443C185.584,158.804,182.639,155.565,177.9,155.565z M177.9,169.809c-2.886,0-4.679-2.219-4.679-5.79
		c0-3.578,1.793-5.802,4.679-5.802c2.879,0,4.668,2.223,4.668,5.802C182.568,167.59,180.779,169.809,177.9,169.809z"/>
	<path style="fill:#FFF7E7;" d="M193.896,155.828h-6.462v16.369h2.95v-5.427h3.435c3.273,0,5.559-2.254,5.559-5.482
		C199.378,158.074,197.124,155.828,193.896,155.828z M193.247,164.217h-2.862v-5.824h2.862c2.016,0,3.127,1.032,3.127,2.907
		C196.374,163.181,195.263,164.217,193.247,164.217z"/>
	<path style="fill:#FFF7E7;" d="M207.506,155.828h-6.462v16.369h2.95v-5.427h3.435c3.273,0,5.559-2.254,5.559-5.482
		C212.988,158.074,210.734,155.828,207.506,155.828z M206.856,164.217h-2.862v-5.824h2.862c2.016,0,3.127,1.032,3.127,2.907
		C209.983,163.181,208.873,164.217,206.856,164.217z"/>
	<rect x="214.654" y="155.828" style="fill:#FFF7E7;" width="2.95" height="16.369"/>
	<polygon style="fill:#FFF7E7;" points="230.602,167.143 222.647,155.828 220.045,155.828 220.045,172.197 222.929,172.197 
		222.929,160.877 230.894,172.197 233.486,172.197 233.486,155.828 230.602,155.828 	"/>
	<path style="fill:#FFF7E7;" d="M243.065,165.966h4.106v0.03c-0.031,2.287-1.699,3.823-4.15,3.823c-2.879,0-4.668-2.261-4.668-5.901
		c0-3.578,1.729-5.713,4.624-5.713c1.97,0,3.422,1.069,3.985,2.932l0.052,0.172h2.999l-0.049-0.284
		c-0.567-3.267-3.379-5.462-6.997-5.462c-4.698,0-7.617,3.21-7.617,8.377c0,5.256,2.931,8.521,7.65,8.521
		c4.439,0,7.089-2.658,7.089-7.112v-1.86h-7.023V165.966z"/>
	<path style="fill:#FFF7E7;" d="M268.204,166.953c-0.472,1.822-1.947,2.867-4.048,2.867c-2.791,0-4.525-2.227-4.525-5.813
		c0-3.524,1.772-5.801,4.514-5.801c2.047,0,3.639,1.247,4.057,3.177l0.041,0.191h2.913l-0.034-0.272
		c-0.433-3.432-3.237-5.737-6.977-5.737c-4.567,0-7.518,3.314-7.518,8.443c0,5.215,2.881,8.455,7.518,8.455
		c3.75,0,6.362-2.021,6.986-5.405l0.053-0.286h-2.933L268.204,166.953z"/>
	<polygon style="fill:#FFF7E7;" points="272.866,172.197 283.434,172.197 283.434,169.577 275.816,169.577 275.816,165.13 
		283.026,165.13 283.026,162.599 275.816,162.599 275.816,158.437 283.434,158.437 283.434,155.828 272.866,155.828 	"/>
	<polygon style="fill:#FFF7E7;" points="296.031,167.144 288.077,155.828 285.474,155.828 285.474,172.197 288.358,172.197 
		288.358,160.877 296.323,172.197 298.915,172.197 298.915,155.828 296.031,155.828 	"/>
	<polygon style="fill:#FFF7E7;" points="300.426,158.437 305.38,158.437 305.38,172.197 308.329,172.197 308.329,158.437 
		313.272,158.437 313.272,155.828 300.426,155.828 	"/>
	<polygon style="fill:#FFF7E7;" points="314.795,172.197 325.362,172.197 325.362,169.577 317.745,169.577 317.745,165.13 
		324.955,165.13 324.955,162.599 317.745,162.599 317.745,158.437 325.362,158.437 325.362,155.828 314.795,155.828 	"/>
	<path style="fill:#FFF7E7;" d="M339.435,160.925c0-3.096-2.178-5.097-5.548-5.097h-6.484v16.369h2.95v-6.109h3.091l3.236,6.109
		h3.406l-3.628-6.606C338.302,164.85,339.435,163.089,339.435,160.925z M333.656,163.611h-3.303v-5.229h3.237
		c1.771,0,2.829,0.975,2.829,2.609C336.419,162.681,335.438,163.611,333.656,163.611z"/>
</g>
<g>
</g>
<g>
</g>
<g>
</g>
<g>
</g>
<g>
</g>
<g>
</g>
<g>
</g>
<g>
</g>
<g>
</g>
<g>
</g>
<g>
</g>
<g>
</g>
<g>
</g>
<g>
</g>
<g>
</g>
</svg>
